<?xml version="1.0" encoding="UTF-8"?>
<svg version="1.1" viewBox="0 0 2048 1935" width="200" height="189" xmlns="http://www.w3.org/2000/svg">
<path transform="translate(1850,522)" d="m0 0h19l34 1 19 3 18 6 19 9 16 11 15 13 12 13 9 13 12 23 8 20 5 15 9 42 3 10v44l-12 62-7 28-11 33-9 22-11 23-13 22-16 24-8 11-11 13-9 10-23 23-11 9-16 12-21 13-25 13-25 10-22 7-19 4-15 2-13 1h-46l-28-2-20-4-18-6-25-10-4 17-8 46-8 39-9 47-9 51-5 25-3 7-4 2-34 1h-71l-14-1-1-1 1-8 7-34 8-44 13-67 9-47 11-53 11-57 7-39 8-42 12-66 12-56 6-36 5-27 7-47 5-32 6-39 8-55 3-16h106l1 1v24l-2 32-1 9v18l3 1 8-5 8-10 12-13 14-14 17-13 20-13 16-9 15-7 24-8 17-3zm-49 99-17 6-19 10-17 13-16 15-12 14-12 16-12 19-9 16-9 21-10 28-8 29-10 49-8 51-5 25-3 23 1 11 8 7 11 6 24 8 20 5 8 1h37l15-4 21-8 16-8 11-7 9-7 10-9 13-13 9-11 8-10 9-13 9-16 12-24 11-28 7-24 10-47v-57l-4-19-7-20-9-14-9-10-11-10-16-9-10-4-6-1z" fill="#462C1D"/>
<path transform="translate(1322,523)" d="m0 0h59l21 2 20 4 18 6 16 8 13 8 17 13 12 11 9 12 9 16 6 13 6 24 4 22v23l-6 33-5 16-10 18-9 12-14 15-8 7-11 9-19 11-23 11-30 10-40 10-42 7-19 2-80 4-41 1-4 8-1 5v8l6 28 4 17 6 15 9 14 11 12 11 9 16 9 15 6 19 5 13 3 8 1h42l19-3 41-7 36-12 21-9h3l5 26 4 20 2 19v18l-4 5-16 8-14 6-27 9-28 7-27 5-25 3-34 2h-48l-25-3-21-5-19-7-18-8-14-8-17-12-13-12-8-8-11-15-10-16-9-16-8-20-8-26-4-26-3-26v-37l6-47 6-24 7-25 13-31 10-20 12-22 9-15 11-15 9-11 9-10 9-11 13-13 11-9 10-9 15-11 19-12 22-12 20-9 21-7 24-5zm-2 89-17 3-20 8-16 9-11 8-10 9-7 6-7 8-13 16-12 20-12 25-8 22-2 11 2 1 20 1h22l35-1 27-2 41-7 26-8 20-9 14-9 10-10 7-12 4-12 2-13v-13l-3-12-4-8-8-10-10-9-16-8-12-3-12-1z" fill="#462C1D"/>
<path transform="translate(907,522)" d="m0 0h41l35 2 22 3 22 5 15 5 13 7 3 3-1 8-7 24-13 37-7 16-3 1-19-8-40-10-17-2h-41l-16 3-12 5-11 6-12 11-6 8-5 10-5 14-1 5v7l5 18 6 12 11 12 7 7 13 10 27 15 26 15 16 11 18 14 10 8 7 7 9 11 8 10 8 13 8 17 5 18 1 15 1 9-1 16-4 27-5 18-10 23-9 14-10 13-11 12-11 11-14 10-16 10-21 10-36 12-29 6-15 2-14 1h-34l-36-3-27-4-31-9-20-7-15-8-8-7 1-8 8-29 9-26 5-11 3-12 4-1 23 10 30 10 29 7 19 3 14 1h26l18-2 15-5 12-6 10-8 8-9 7-12 6-21v-16l-4-14-8-16-4-6-11-11-17-12-40-24-21-13-11-8-13-11-12-11-7-7-10-13-9-16-6-15-6-20-1-5v-34l5-23 8-23 8-16 10-16 11-13 19-19 11-8 16-10 15-8 23-9 21-7 21-4z" fill="#462C1D"/>
<path transform="translate(164,293)" d="m0 0 4 1 16 16 12 11 13 12 24 24 7 8 15 16 48 48 8 7 12 12 2 1v2l3 1 18 18 7 8 13 15 9 13 3 5v10l-4 46-12 79-9 55-8 41-13 72-6 31-7 39-9 53-4 24-6 45-7 42-2 1-4-21-10-57-8-50-6-39-10-61-10-57-14-79-6-30-5-21-5-39-8-47-10-63-5-33-8-42-5-22-6-35-4-21-3-29z" fill="#BE9371"/>
<path transform="translate(805,405)" d="m0 0h4l-2 5-7 14-9 16-13 22-12 20-11 19-15 30-15 25-24 42-14 26-14 28-13 21-20 41-16 27-12 20-10 18-13 24-12 21-23 45-10 18-15 25-14 25-15 27-13 24-11 23-13 21-12 16-6 10h-2l1-5 2-12 2-18 7-46 7-39 10-60 7-43 11-61 6-41 5-29 5-37 5-20 7-36 10-46 4-15 2-10 4-5 17-9 20-9 25-12 23-11 21-9 21-12 70-35 21-12 30-13 14-6z" fill="#BE9370"/>
<path transform="translate(466,315)" d="m0 0h28l17 3 12 5 11 7 8 7 11 15 8 17 4 18v26l-4 17-7 16-9 15-9 12-11 12-8 8-11 9-14 8-22 11-8 6-5-1-10-8-17-17-9-11-9-12-10-17-8-20-4-14-1-5v-26l5-21 7-17 8-12 9-10 13-10 14-7 13-3z" fill="#462C1D"/>
<path transform="translate(1350,164)" d="m0 0h88l44 2 36 3 63 8 35 6 34 7 48 12 30 9 36 13 27 11 26 12 31 16 17 10 20 13 17 12 14 10 13 11 11 9 13 13 8 7 15 16 10 13 11 16 4 5-1 2-6-5-7-8-10-10-11-9-14-12-17-13-13-10-24-16-19-12-26-14-36-18-25-11-28-11-31-11-30-9-45-12-39-9-31-6-49-7-33-4-108-9-33-1h-41l-32 1-55 4-70 7-76 11-66 12-60 14-56 14-29 7-5 1h-7l1-2 29-8 67-19 42-11 41-10 26-5 33-7 62-10 71-9 51-5 39-3z" fill="#0B0806"/>
<path transform="translate(114,966)" d="m0 0 3 3 6 19 10 34 8 26 7 19 10 21 13 21 11 15 8 11 9 11 10 11 7 8 25 25 11 9 10 9 18 13 17 12 20 13 23 13 24 13 27 14 31 14 34 12 49 16 36 10 38 9 45 8 46 7 42 5 53 4 16 1 121 1 45 1 2 3-2 2-94 3-23 1h-101l-43-2-42-4-57-8-35-6-38-8-48-12-35-11-32-12-23-10-34-16-23-13-22-14-19-13-16-12-14-11-14-12-8-8-8-7-16-17-14-17-13-18-9-14-9-16-11-22-9-24-7-22-7-30-6-42-3-11z" fill="#090604"/>
<path transform="translate(907,522)" d="m0 0h41l35 2 22 3 22 5 15 5 13 7 3 3-1 8-7 24-13 37-7 16-3 1-19-8-40-10-17-2h-41l-16 3-12 5-11 6-12 11-6 8-5 10-5 14-1 5v7l5 18 6 12 11 12 7 7 13 10 27 15 26 15 16 11 18 14 10 8 7 7 9 11 8 10 8 13 8 17 5 18 1 15 1 9-1 16-4 27-5 18-10 23-9 14-10 13-11 12-11 11-14 10-16 10-21 10-36 12-29 6-15 2-14 1h-34l-36-3-27-4-31-9-20-7-13-7-1-2 10 2 17 6 49 12 19 3 27 2h49l15-2 36-9 24-8 23-11 19-12 11-8 14-12 8-8 11-14 8-10 8-16 4-13 4-16 2-12h2l2-18v-22l-4-16-5-12-13-26-6-9-14-15-11-9-15-11-37-24-20-11-14-9-14-10-11-9-10-10-9-12-4-8-3-12v-13l2-10 5-12 7-11 11-12 7-6 8-6 10-6 9-4 3-2h37l19 1 35 4 21 4 16 5h3l8-16 7-22 5-25v-6l-4-5-17-6-12-3-4-3-28-4-28-2h-48l-21 3-17 4-28 10-26 12-13 8-7 5h-2l-1 3-4 3h-2v2l-9 5-9 10-6 9 4-3-2 6-10 12-7 11-8 15-5 14-4 16-1 7v41l4 14 3 6 5 14 4 6 2 12h-2l-9-15-7-16-7-23-1-5v-34l5-23 8-23 8-16 10-16 11-13 19-19 11-8 16-10 15-8 23-9 21-7 21-4z" fill="#0B0705"/>
<path transform="translate(1583,533)" d="m0 0h106l1 1v24l-2 32-1 9-2 1-3-12-1-46-34-1h-57l-4 37-5 30-3 26-6 27-4 23-3 25-7 26-5 40-9 44-7 36-5 30-5 27-5 30-10 51-7 34-6 29-5 25-8 44-13 73-7 35-9 53v2l3 1h105l-2-1 1-9 17-91 12-64 3-22 6-25 4-6h5l-1 11-8 46-8 39-9 47-9 51-5 25-3 7-4 2-34 1h-71l-14-1-1-1 1-8 7-34 8-44 13-67 9-47 11-53 11-57 7-39 8-42 12-66 12-56 6-36 5-27 7-47 5-32 6-39 8-55z" fill="#090604"/>
<path transform="translate(1562,1498)" d="m0 0 3 1-1 6-23 47-9 19-8 16-12 26-8 12-6 3-16-1-3-3-1-4-3-47-1-29-2-7-10 15-17 36-13 25-7 10-4 3-7 2h-9l-5-4-1-5v-9l-2-16-3-68-1-25 1-1 20 1 3 1 1 2 1 70 1 12 3-1 9-14 8-16 8-17 12-22 7-14 10-2h14l2 2 1 11 1 54 1 17 2 5 5-6 8-16 14-29 13-28 5-8 13-3z" fill="#070403"/>
<path transform="translate(289,1500)" d="m0 0 25 1h11l1 1 1 19 1 62 2 7 7-10 18-37 14-32 4-9 1-1h10l10 1 10-1 6 2-5 26-7 38-5 30-3 17-1 11-4 3h-14l-4-2v-7l10-45 5-30 1-9-3 1-7 10-13 27-13 31-8 18-5 5h-18l-4-6-3-24-3-48-2-12-1-4h-4l-3 28-4 24-5 24-1 13-2 5-3 1h-16l-1-1 1-10 8-41 9-40 5-26z" fill="#080504"/>
<path transform="translate(1818,613)" d="m0 0h13l16 2 18 6 12 7 10 8 9 9 9 13 9 16 5 15 3 21v47l-4 25-6 28-9 35-7 19-12 25-11 19-12 17-13 16-11 12-14 12-15 10-16 10-17 8-17 5-15 2-18 1h-13l-22-2-22-5-13-5-11-6-10-8-4-6-2-10-1-16 4-27 9-48 12-62 7-27 12-37 14-31 11-19 10-14 14-15 12-12 11-9 9-7 14-8 13-6 16-5 12-2zm-17 8-17 6-19 10-17 13-16 15-12 14-12 16-12 19-9 16-9 21-10 28-8 29-10 49-8 51-5 25-3 23 1 11 8 7 11 6 24 8 20 5 8 1h37l15-4 21-8 16-8 11-7 9-7 10-9 13-13 9-11 8-10 9-13 9-16 12-24 11-28 7-24 10-47v-57l-4-19-7-20-9-14-9-10-11-10-16-9-10-4-6-1z" fill="#080504"/>
<path transform="translate(1170,1500)" d="m0 0h31l22 1 11 2 6 3 6 9 3 10v21l-3 8-6 7-11 7-14 7 4 12 11 24 8 13 1 3-7 2h-8l-9-2-5-5-14-35-3-9-12-2h-22l-2 12-4 20-4 14-3 5-2 1h-15l-3-2 1-10 20-98 2-14 2-3zm13 18-9 3-4 5-4 11-1 5v14l2 1h36l11-2 9-8 3-5 1-5v-7l-2-5-4-4-12-3z" fill="#060403"/>
<path transform="translate(1718,1501)" d="m0 0h55l12 2 8 4 7 7 2 6v22l-2 10-3 6-10 8-15 7-5 1 5 12 7 12 6 12 6 10 2 6-4 2h-17l-5-2-3-3-6-18-8-15-5-9-5-4-4-1h-19l-4 4-3 10-2 14-5 19-2 4-5 2h-14l-2-3 1-10 12-57 6-27 5-27 2-3zm41 16-25 1-6 2-5 6-5 16v14l4 1h35l12-3 6-4 5-6 1-4v-12l-4-6-4-3-10-2z" fill="#070403"/>
<path transform="translate(750,1499)" d="m0 0h30l13 5 11 10 9 14 4 11 1 6v14l-3 15-5 13-8 13-11 13-10 8-10 5-17 4-8 1h-11l-16-4-11-7-7-8-6-11-4-16v-11l2-13 4-15 5-12 8-12 9-10 11-7 10-4zm2 17-10 4-9 7-8 10-6 12-4 13-1 18 2 13 6 10 8 6 12 5h9l10-4 11-8 8-9 7-14 4-15 1-13-3-15-4-8-5-5-5-4-8-3z" fill="#060403"/>
<path transform="translate(577,1501)" d="m0 0h42l18 1 10 3 8 5 5 4 9 14 4 11 1 16-2 13-4 15-6 12-10 13-7 7-11 7-9 3-5 1-14 1-49 1-4-1-2-7 6-28 5-21 10-50 3-18zm37 15-12 2-6 3-3 7-6 33-5 24-2 12v13l3 2h20l14-3 11-6 5-4 9-13 3-8 3-16v-19l-3-12-4-6-6-5-9-3z" fill="#070504"/>
<path transform="translate(1888,1501)" d="m0 0h44l1 1v7l-3 8-2 1-64 1-5 2-5 16-3 18h66l2 3v8l-3 7-1 1h-64l-5 2-2 5-3 21v8l35 1h38l1 1v11l-1 3-2 1-83 2h-14l-3-3 1-9 8-33 12-60 3-20 2-2z" fill="#0B0706"/>
<path transform="translate(853,1500)" d="m0 0h25l1 2-8 27-8 37-3 12-1 8v14l2 8 5 2 7 3h18l11-4 7-6 5-10 4-13 8-39 6-27 1-10 3-4h23l1 4-6 21-8 41-6 23-6 15-6 9-4 5-10 7-14 4-16 2h-10l-15-3-11-6-7-8-4-7-2-8v-15l10-49 4-19 2-14z" fill="#060403"/>
<path transform="translate(1322,523)" d="m0 0h59l21 2 20 4 18 6 16 8 13 8 17 13 12 11 9 12 9 16 6 13 6 24 3 15v14h-1l-3-13-6-18v-6l-3-1-3-8-1-9-9-16-7-10-24-24-16-11-16-8-36-9-18-4-25-3h-38l-27 6-20 6-28 11-22 11-15 10-18 13-11 9-10 9-17 16-15 16-9 11-10 14-12 19-10 19-11 24-11 25-9 27-4 17-5 34-3 8-1 8v44l5 32 2 16 8 22 5 25-3-1-8-19-9-29-4-26-3-26v-37l6-47 6-24 7-25 13-31 10-20 12-22 9-15 11-15 9-11 9-10 9-11 13-13 11-9 10-9 15-11 19-12 22-12 20-9 21-7 24-5z" fill="#080504"/>
<path transform="translate(1624,1499)" d="m0 0h9l3 2 7 40 8 51 6 29v6l-7 3-10-1-5-8-4-21-1-1h-51l-4 4-13 23-1 1-7 1h-13l-3-1 1-5 10-17 10-19 9-15 14-25 16-27 9-14 5-4zm-10 33-6 7-8 16-8 15-2 5v4l12 3 14 1 12-1v-9l-3-21-4-16-3-4z" fill="#060403"/>
<path transform="translate(1342,1498)" d="m0 0 7 1 2 12 6 41 8 50 5 20v5l-1 1h-15l-5-3-3-7-3-17v-3l-52 1-7 8-8 16-4 4-11 2h-8l-4-1 2-5 7-11 13-24 11-19 12-22 13-23 9-15 4-5 7-3zm-16 35-6 7-15 28-4 8-1 6 12 1h27l1-1v-11l-3-20-5-16-2-2z" fill="#060403"/>
<path transform="translate(501,1500)" d="m0 0 7 1 2 8 5 36 7 45 5 32v5l-1 1h-14l-5-3-3-9-3-17-52-1-2 4-7 10-7 13-4 2-10 1h-9l-1-3 12-20 11-20 9-15 15-28 13-22 8-15 3-3 5-1 7 1zm-15 26-13 23-11 21-4 8-1 4 5 1h29l7-2 1-9-7-36-4-9z" fill="#070404"/>
<path transform="translate(200,1500)" d="m0 0h10l9 3 3 6 3 19 10 69 4 26v5h-17l-3-3-3-14-2-11-3-1h-51l-12 19-6 8-7 3h-9l-3-3 2-5 7-12 8-16 9-16 6-10 14-26 12-20 10-15 6-5zm-1 32-6 5-12 22-10 18-2 6h37l3-1v-15l-4-30-3-5z" fill="#090604"/>
<path transform="translate(1530,671)" d="m0 0h1v20l-5 27-5 16-10 18-9 12-14 15-8 7-11 9-19 11-23 11-30 10-40 10-42 7-19 2-80 4-41 1-4 8-1 5v8l6 28 4 17 6 15 9 14 11 12 11 9 16 9 15 6 19 5 13 3 8 1h42l19-3 41-7 36-12 21-9h3l4 22v17l-2 2-6-13-3-12v-3h-7l-20 7-18 6-26 6-20 3-24 2h-31l-32-4-19-5-14-5-9-5-16-12-13-13-7-6-9-11-3-5v-8l-6-12-3-16-3-25-1-12 2-8 6-7 6-2 105-1 34-3 42-7 32-8 18-6 22-9 22-10 20-12 14-12 10-13 13-23 7-16 13-38z" fill="#0A0705"/>
<path transform="translate(2035,788)" d="m0 0h1l1 15-8 32-11 33-9 22-11 23-13 22-16 24-8 11-11 13-9 10-23 23-11 9-16 12-21 13-25 13-25 10-22 7-19 4-15 2-13 1h-46l-28-2-20-4-18-6-18-7-1-3 13 2 41 8 34 2h43l21-1 19-3 23-6 12-5 16-8 18-10 30-20 14-11 15-13 13-13 9-11 12-14 14-20 11-17 12-22 15-31 8-19 9-24 10-30z" fill="#080504"/>
<path transform="translate(1330,605)" d="m0 0h17l19 2 14 4 14 7 13 10 8 10 6 13 3 11v12l-2 16-3 14-4 8-11 12-15 11-17 9-15 6-21 6-27 4-57 5-26 2h-29l-7-3-7-6-1-3v-12l3-16 5-12 12-25 6-11 10-14 11-12 4-5 8-7 12-10 14-9 12-6 22-7 16-3zm-10 7-17 3-20 8-16 9-11 8-10 9-7 6-7 8-13 16-12 20-12 25-8 22-2 11 2 1 20 1h22l35-1 27-2 41-7 26-8 20-9 14-9 10-10 7-12 4-12 2-13v-13l-3-12-4-8-8-10-10-9-16-8-12-3-12-1z" fill="#090605"/>
<path transform="translate(1036,1500)" d="m0 0h93l1 1v12l-2 4-7 2-23 1-9 2-4 16-11 53-5 19-5 16-2 2h-13l-5-2-1-1 1-11 6-29 6-28 7-34v-3h-19l-17-1-3-7v-7l2-4z" fill="#0A0705"/>
<path transform="translate(466,315)" d="m0 0h28l17 3 12 5 11 7 8 7 11 15 8 17 4 18v26l-4 17-7 16-9 15-9 12-11 12-8 8-11 9-14 8-22 11-8 6-5-1-10-8-17-17-9-11-9-12-10-17-8-20-4-14-1-5v-26l5-21 3-2-1 43 2 16 3 9 4 9 6 10v2h2l12 19 6 7v2h2l5 5v2l3 1v2l4 2 4 5 6 5 5 1 14-2 11-4 4-4 10-5 11-9 9-10 7-6 1-2h2l2-5 7-10 8-16 6-15 2-11 1-18v-11l-1-13-5-14-8-13-5-5v-2l-4-2-12-9-17-2-1-3 1-2-8-1h-16l-13 2-14 5-20 9-15 9-10 10h-2l2-5 7-9 11-10 13-8 14-5z" fill="#0A0705"/>
<path transform="translate(1850,522)" d="m0 0h19l34 1 19 3 18 6 19 9 16 11 15 13 12 13 9 13 12 23 8 20 5 15 1 8h-3l5 34 2 22v22l-1 9h-1l-1-28-4-36-5-21-6-19-8-23-10-19-9-12-11-13-12-11-14-9-16-8-26-10-16-3-15-2-15-1h-11l-17 2-24 6-24 10-17 9-18 11-17 12-24 22-9 9-8 6-4-1 2-5 9-10 7-8 16-16 17-13 20-13 16-9 15-7 24-8 17-3z" fill="#070504"/>
<path transform="translate(289,1500)" d="m0 0 25 1h11l1 1 1 19 1 68-11 2-3-12-3-4-1-6-1-31 2-12v-10l-6-2-2-6h-3l1 11-3-1-1 9-1 34-4 24-5 24-1 13-2 5-3 1h-16l-1-1 1-10 8-41 9-40 5-26z" fill="#070504"/>
<path transform="translate(1888,1501)" d="m0 0h44l1 1v7l-3 8-2 1-64 1-5 2-5 16-3 18h66l2 3v8l-2 2h-42l-20-1-9-4-6-5-5-10-3-10v-9l4-25 2-2z" fill="#060403"/>
<path transform="translate(1078,984)" d="m0 0 4 2 6 5 4 8 4 9 17 16 12 11 15 11 14 8 7 3 16 8 13 6 19 5 16 2 22 1h19l36-1 38-3 34-6 26-6 26-8 12-5 5-5 7-8 6-2 2-1 1-9h2v18l-4 5-16 8-14 6-27 9-28 7-27 5-25 3-34 2h-48l-25-3-21-5-19-7-18-8-14-8-17-12-13-12-8-8-11-15-10-16-4-7z" fill="#090604"/>
<path transform="translate(1562,1498)" d="m0 0 3 1-1 6-23 47-9 19-8 16-12 26-8 12-6 3-16-1-3-3-1-4v-10l6 5 8 2h7l5-2 1-4 2-20v-15l17-36 16-34 5-5z" fill="#080504"/>
<path transform="translate(1718,1501)" d="m0 0h55l12 2 8 4 7 7 2 6v22l-2 10-3 6-10 8-8 4h-5l1-9 2-9 4-10h2l2 12 5 2-1-14-2-22-1-4-4 2-1-2h-2l-1 6-5-2-10-2-29 1-6 2-4 5-3 9-4-4-9-17-4-3-1 2 1-8 2-3z" fill="#050303"/>
<path transform="translate(899,937)" d="m0 0h1l1 12 1 3-3 7-7 11-12 12-14 10-16 6-8 2h-25l-32-1-20-2-29-6-26-8-19-8-8-4-3 14-13 41-8 20h-2l-2-3-2 2 1-9 6-22 9-26 5-11 3-12 4-1 23 10 30 10 29 7 19 3 14 1h26l18-2 15-5 12-6 10-8 8-9 7-12 4-10z" fill="#0B0705"/>
<path transform="translate(1394,1500)" d="m0 0 20 1 3 1 1 2 1 70 1 11-2-4h-2l-1 4-13 4v19l-2 3-1-1-2-16-3-68-1-25z" fill="#513524"/>
<path transform="translate(1036,1500)" d="m0 0h93l1 1v12l-2 4-2 1-29-1v2l-5-1h-3l-28 2h-17l-17-1-3-7v-7l2-4z" fill="#050303"/>
<path transform="translate(1144,1533)" d="m0 0 2 1 8 24 3 16 1 5-3 21-5 20-4 7-2 1h-15l-3-2 1-10z" fill="#090504"/>
<path transform="translate(278,1231)" d="m0 0 4 2 15 11 15 10 20 12 19 11 35 18 29 12 11 5 50 16 11 3 1 3h-9l-1 1-9-1-20-6-26-9-32-14-21-9-21-10-23-13-18-11-17-11-5-4-3-5-4-5z" fill="#462C1D"/>
<path transform="translate(853,1500)" d="m0 0h25l1 2-8 27-8 37-3 12-2-2-13-31-1-5 5-24 2-14z" fill="#050303"/>
<path transform="translate(321,1501)" d="m0 0 5 1 1 19 1 68-11 2-3-12-3-4-1-6-1-31 2-12v-10l-6-2-2-6 5 1v-4h9z" fill="#060403"/>
<path transform="translate(1332,1509)" d="m0 0 2 2v4h2l1 16 5 11v9l2 13 2 8v22l-2 7-1-3h-52l1-4 3-3 4-13 3-9h2l-3 10-1 3h39v-11l-3-20-5-16-5-1-5 6-10 19-1-3 4-12 5-9h2l3-9 3-2v2h2v-8z" fill="#482E1F"/>
<path transform="translate(936,1500)" d="m0 0h23l1 4-6 21-8 41-2 9-2-3-7-17-8-16 5-25 1-10z" fill="#050303"/>
<path transform="translate(300,1508)" d="m0 0h3l3 6 6 2v10l-2 12 1 31 2 8 2 2 2 6v6l4-2h7l1-4 1 6 3 1 2 10v8l-12 6-9 3-2 2-3-24-3-48-2-12-1-4h-4l-2 19h-1v-25l2-9h2z" fill="#492E1F"/>
<path transform="translate(1767,1580)" d="m0 0 4 4 8 14 6 12 6 10 2 6-4 2h-17l-5-2-3-3-6-18-8-15-3-6 1-2 5 1h10z" fill="#090604"/>
<path transform="translate(1203,1566)" d="m0 0h28l-5 4-11 5 4 12 11 24 8 13 1 3-7 2h-8l-9-2-5-5-5-13 1-2 4-1 7-9 1-4-2-6-11-7-8-4-3-1 2-5 3-3z" fill="#0B0706"/>
<path transform="translate(1089,1516)" d="m0 0 8 3v-2h22l2 2-23 1-9 2-4 16-8 39h-2l-2-8-5-13-8-16 3-18v-2l-2-1 11-1h17z" fill="#0B0705"/>
<path transform="translate(152,1573)" d="m0 0 5 4 4 20 5-4 1 4h18v1l-25 1-12 19-6 8-7 3h-9l-3-3 2-5 7-12 8-16 9-16z" fill="#0A0705"/>
<path transform="translate(516,1561)" d="m0 0 2 2 9 59v5l-1 1h-14l-5-3-3-9-1-7v-10l5-9 1-16 4-5z" fill="#070403"/>
<path transform="translate(751,781)" d="m0 0 5 1 5 6v2h2l4 6 3 1v2h3l1 2 9 5 9 6 14 8 10 7 18 12 19 12 15 9 10 8 7 6 6 9 4 7 5 8 3 12v7l-5-1-4-14-8-16-4-6-11-11-17-12-40-24-21-13-11-8-13-11-12-11-6-6z" fill="#0D0806"/>
<path transform="translate(645,1574)" d="m0 0 2 3 3 10v8l-6 8-9 5-27 5-34 4h-5l-6-10-6-13 4-18 2 4 10 17 5 6 2-2 1 9 2 1h20l14-3 11-6 3-3h2l2-4 7-11z" fill="#472D1E"/>
<path transform="translate(1494,1567)" d="m0 0h1l1 17 2 5 5-6 3-5h2v13l-2 20-2 5-5 2h-7l-10-3-2-2 1-8 5-17 6-13z" fill="#472D1E"/>
<path transform="translate(1831,1535)" d="m0 0 2 3 5 15 6 8 8 4 3 1 20 1h43l-2 6-1 1h-64l-5 2-3 6-5-5-6-12-4-11 1-10z" fill="#4A2F20"/>
<path transform="translate(1827,1554)" d="m0 0h2l7 18 7 10-1 13-2 14-1-2-9-1-5-5-3-4-2 2-1-6z" fill="#060403"/>
<path transform="translate(792,1555)" d="m0 0 3 4 12 22 2 3-1 6-6 10-11 13-9 7-4-1-2-7 6-8 14-10v-6l-6-9-2-1 1-9z" fill="#060403"/>
<path transform="translate(1779,1515)" d="m0 0 4 1 3-1 2 5 3 30v7l-6-3-2-6v-6h-2l-1 5-3 7-3 16 3 1-10 3 2 7-5 2-1 1h-10l-7-2-6-5-4-2 4-2 26-3 3-3 3-6v-5l-3-3 6-4 4-5 1-4v-12l-3-6z" fill="#482D1E"/>
<path transform="translate(568,1544)" d="m0 0h2l9 22 4 8v11l-3 16-2 3-8-10-8-14v-9l5-25z" fill="#050303"/>
<path transform="translate(1051,1583)" d="m0 0 3 4 13 25-1 9-3 6-1 1h-13l-5-2-1-1 1-11 6-29z" fill="#0A0605"/>
<path transform="translate(1688,1583)" d="m0 0 5 4 2 6 1 10 6 7 1 5h2l-3 10-3 3-3 1h-14l-2-3 1-10z" fill="#442B1D"/>
<path transform="translate(1696,1553)" d="m0 0h2l5 20 6 18v9l-4 15h-2l-4-8-4-4-2-14-4-5 1-12 4-17z" fill="#070403"/>
<path transform="translate(1404,1529)" d="m0 0 5 1 5 6v18l1 10 2 1 1 5v10l-11 2h-6l-1-1 1-17 1-1 8-1 1-3h-7l-1-7h-2v-18z" fill="#040202"/>
<path transform="translate(1158,1511)" d="m0 0 5 5v2l20-2 7-1h25l18 1 1 1 1 35-2 4h-4l-3-15v-11l-2-5-3-3-12-3h-26l-9 3-4 6-2 6-3-4-6-13z" fill="#472D1E"/>
<path transform="translate(662,1537)" d="m0 0 3 3 8 20-1 8-4 15-2 3-8-16-7-19v-5l6-3 3-5z" fill="#462C1D"/>
<path transform="translate(848,1521)" d="m0 0 2 4 7 10 9 18-6 25-2-2-13-31-1-5z" fill="#472D1E"/>
<path transform="translate(1307,1583)" d="m0 0h32v14h-41l-1-4 2-5 4-1z" fill="#060403"/>
<path transform="translate(1394,1500)" d="m0 0h5v2h11l4 5 1 5-3 4v7l1 8-3-2-4-9-5 9-3 9v21l-2-2-2-31-1-25z" fill="#080504"/>
<path transform="translate(788,1535)" d="m0 0 4 2 6 5 2 5 3-1 8 16 2 7v4l2 1-5 13-2-3-13-23-4-10z" fill="#472D1E"/>
<path transform="translate(1698,1537)" d="m0 0 2 3 6 12 8 9 3 11v4l-4 4-3 10-2 1-8-25-2-9v-4l-3 1 1-8z" fill="#472D1E"/>
<path transform="translate(1203,1566)" d="m0 0h28l-5 4-11 5 4 12 3 6-2 5-4 7-9 9-2-7 5-1 7-9 1-4-2-6-11-7-8-4-3-1 2-5 3-3z" fill="#462C1D"/>
<path transform="translate(380,1515)" d="m0 0 8 1 8 4-2 11h-3l-5-7-2-1 3 8v14l-3 7-3 3 1-11 1-9-3 1-6 8h-1v-15l2-10z" fill="#472D1D"/>
<path transform="translate(787,1576)" d="m0 0 1 2 3 1 6 9v6l-12 9-5 4-3 5 1 7 3 1-3 2-5-7-3-9 1-4 8-9 7-14z" fill="#442B1C"/>
<path transform="translate(1582,1570)" d="m0 0 10 2-2 7 21 3h17v-6l7 7v33h-1l-3-16-1-2v-12h-25l-15-1-9-4-2-3 1-6z" fill="#4C3121"/>
<path transform="translate(1486,180)" d="m0 0h6v3l-5 3-2 4h6v1l-19-1-60-5v-1l5-1 64-2z" fill="#482E1F"/>
<path transform="translate(645,1574)" d="m0 0 2 3 3 10v8l-6 8-9 5-21 4h-4v-2l11-4 9-6 3-1 2-4 7-11z" fill="#492E1F"/>
<path transform="translate(1358,1608)" d="m0 0h7l2 2 3 12v5l-1 1h-15l-5-3-3-7v-8l10-1z" fill="#080504"/>
<path transform="translate(836,1578)" d="m0 0 6 5 2-5h3l-1 25 2 13 5 8-5-2-7-8-4-7-2-8v-15z" fill="#482E1E"/>
<path transform="translate(1767,1580)" d="m0 0 4 4v7 4l-5 7h-3v2l-5 1-8-15-3-6 1-2 5 1h10z" fill="#060403"/>
<path transform="translate(513,1539)" d="m0 0h1l3 17-1 9-4 7h-2l-1 18-6 12-2-3-52-1-1 2 1-5 2-1 2 1v2l43-1 3-4 4-13 7-13 2-12z" fill="#492E1F"/>
<path transform="translate(570,1532)" d="m0 0 3 4h2v2h2l5 12 4 5 2 3-2 12-2 9h-1l-3-9-8-18-2-5v-3h-2z" fill="#482E1E"/>
<path transform="translate(750,1499)" d="m0 0h30l6 2v3l8 11 12 23v5l-5-5-11-20-7-8-13-7-4-1h-16l-16 2 3-2z" fill="#482D1E"/>
<path transform="translate(1475,1514)" d="m0 0h5l2 4-1 10-3 11-3 5-2-4-1-3-8 12-2-4-2-1 1-4 5-1 3-11 3-12z" fill="#482D1E"/>
<path transform="translate(1779,1515)" d="m0 0 4 1 3-1 2 5 3 30v7l-6-3-2-6v-6h-2v3l-2-1 1-4v-12l-3-6z" fill="#472C1D"/>
<path transform="translate(1684,1610)" d="m0 0 1 2 10 2 6 3 2 3-1 5-3 3-3 1h-14l-2-3 1-10 2-5z" fill="#080504"/>
<path transform="translate(214,1541)" d="m0 0h1l1 5-1 17-1 11 2 6 4 2v15l-3 7-2-1-1-3-2-2 3-3v-9l-5-2h-10v-1l9-1-1-24 4-8 1-8z" fill="#4E3322"/>
<path transform="translate(1705,1509)" d="m0 0 4 2 5 4 5 1h12l8-1h24l7 2v1l-36 1-6 2-4 5-3 9-4-4-9-17-3-3z" fill="#4C3121"/>
<path transform="translate(1427,1579)" d="m0 0h1v12l-2 13-7 8-3 2h-5l-4-2-3-1v-7l2-2 15-1 1-1v-8l-2-6 3-1z" fill="#482D1E"/>
<path transform="translate(1619,1514)" d="m0 0h3l3 16 2 16v18h-1l-5-25-3-6-5 1-5 5 2-10 3-6h2l1-6z" fill="#4F3423"/>
<path transform="translate(933,234)" d="m0 0 3 1h12l-4 2-64 16-5 1h-7l1-2 29-8z" fill="#23160F"/>
<path transform="translate(1170,1500)" d="m0 0h31l22 1 11 2 3 2-83-1-2-1v-2z" fill="#593C2A"/>
<path transform="translate(730,541)" d="m0 0 1 2-4 10-4 4-14 22-24 44-10 17-14 23-2 1 2-6 8-13 12-21 10-18 16-29 12-19z" fill="#462C1D"/>
<path transform="translate(1821,1595)" d="m0 0 4 5 3 3v2l11 2 2 1v2l35 1 13 1v1l-6 1h-50l-9-7-3-7z" fill="#462C1D"/>
<path transform="translate(929,1528)" d="m0 0 4 1 4 14 9 19-1 8-1 5-2-3-7-17-8-16z" fill="#482E1E"/>
<path transform="translate(695,1552)" d="m0 0h1l2 12v41l-2-1-4-13-1-6v-11l2-13z" fill="#4D3222"/>
<path transform="translate(715,1589)" d="m0 0 2 4 6 10 9 6 10 4h13l-2 2-28 1-5-2-3-6-2-10z" fill="#4C3121"/>
<path transform="translate(486,1513)" d="m0 0 12 3 1 1v6l-7 13-2-3-3-6-2 2-2 3 1-16z" fill="#492F1F"/>
<path transform="translate(1144,1533)" d="m0 0 2 1 8 24 3 16 1 5-3-2-2-5v-3h-2l-9-24z" fill="#482E1E"/>
<path transform="translate(387,1578)" d="m0 0 8 4-1 10-5 29-2-4-3-8v-6l3-6 2-12-3-2z" fill="#472D1E"/>
<path transform="translate(908,1374)" d="m0 0h39l2 3-2 2-32 1h-19v-1l15-1-3-2z" fill="#22160F"/>
<path transform="translate(632,490)" d="m0 0 4 1-18 10-16 8-15 7-10 4-2-1 2-3 46-22z" fill="#583B29"/>
<path transform="translate(921,1565)" d="m0 0 4 1 1 12 2 9 1 12-4-2-7-11-1-2z" fill="#472D1E"/>
<path transform="translate(1649,1586)" d="m0 0h1l5 25-1 3-12-2 1-9 3-10z" fill="#462D1E"/>
<path transform="translate(327,1592)" d="m0 0h3l-3 12-4 8-5 3h-2v-14l3-7z" fill="#030202"/>
<path transform="translate(1563,1503)" d="m0 0 1 2-23 47-9 19-6 12-1-4 18-40 13-23 5-11z" fill="#5A3D2B"/>
<path transform="translate(204,1516)" d="m0 0h8l1 3-5 10-4 4-7 1-3 2 1-6 5-9z" fill="#472D1E"/>
<path transform="translate(755,1513)" d="m0 0h8l10 3 2 3-8-2h-15l-10 4-9 7-8 11-5 10-1-3 5-12 8-11 9-6 8-3z" fill="#4D3222"/>
<path transform="translate(445,1576)" d="m0 0h2l1 2v11l-5 13v6l-5 8h-1v-16l4-9 3-13z" fill="#462C1D"/>
<path transform="translate(873,1500)" d="m0 0h5l1 2-8 27h-2l-8-16-1-4 4 1v5l6-2 2-5z" fill="#4A3020"/>
<path transform="translate(711,450)" d="m0 0 4 1-17 9-9 5-12 5-9 5-16 8-5 2 5-5 22-12 23-11z" fill="#523725"/>
<path transform="translate(420,488)" d="m0 0 4 1 8 5v2h2v2l3 1v2h2l2 5 3 1 4 7-1 4-17-17-9-11z" fill="#482D1E"/>
<path transform="translate(806,407)" d="m0 0 1 3-7 14-9 16-9 15-4 1 2-5 9-15 7-16 6-5 3-7z" fill="#6A4B36"/>
<path transform="translate(1158,1511)" d="m0 0 5 5v2l19-1 1 2-9 3-4 6-2 6-3-4-6-13z" fill="#4E3322"/>
<path transform="translate(1036,1500)" d="m0 0h93v1l-95 2-9 1 1-3z" fill="#73543E"/>
<path transform="translate(1052,827)" d="m0 0h1v71h-1l-2-18v-37z" fill="#4E3323"/>
<path transform="translate(1302,1569)" d="m0 0h2l-3 10-1 3h12v1l-7 2-2 3-4 1-1 8h39v1h-46l1-4 3-3 4-13z" fill="#4A3020"/>
<path transform="translate(1848,1514)" d="m0 0h2l1 2 13 2-4 2-3 6-4 16-1 7h-1l-1-22-1-9z" fill="#503524"/>
<path transform="translate(1718,1501)" d="m0 0h55l8 1v1l-59 1-17 1 1-3z" fill="#492E1F"/>
<path transform="translate(1061,1534)" d="m0 0 2 3 6 15v3h2l1 3 5 2 1 5 1 3-2 9h-2l-2-8-5-13-8-16z" fill="#60422F"/>
<path transform="translate(1342,1498)" d="m0 0 7 1 1 9-1-2-10-1h-19l3-3 12-3z" fill="#4C3222"/>
<path transform="translate(724,554)" d="m0 0 1 2-24 42-9 16h-2l2-5 12-23 9-15z" fill="#BF9471"/>
<path transform="translate(1363,1596)" d="m0 0h1l2 13h-8l-6 2h-5l-2 1-1-10 1 2 6 1 10-3z" fill="#4C3121"/>
<path transform="translate(1089,1516)" d="m0 0 8 3v-2h22l2 2-42 2-16 1v-2l-2-1 11-1h17z" fill="#BF9472"/>
<path transform="translate(281,1578)" d="m0 0 6 1 4 8-2 13-2 4-4-16-2-6z" fill="#492F1F"/>
<path transform="translate(152,1573)" d="m0 0 5 4 4 20 5-4 1 4h18v1l-25 1-3 3-3-19v-6l-5 2 2-5z" fill="#4A2F20"/>
<path transform="translate(642,1585)" d="m0 0 3 3v6l-6 7-7 3h-5l4-5h2l2-4z" fill="#0C0806"/>
<path transform="translate(694,603)" d="m0 0 1 2-14 25-12 20-8 13-2 1 2-6 8-13 12-21 11-19z" fill="#462C1D"/>
<path transform="translate(500,1543)" d="m0 0h2v20l-2 11-2-2-2-11 1-9z" fill="#4A2F1F"/>
<path transform="translate(801,1512)" d="m0 0 5 5 7 11 4 11 1 6v14h-1l-2-8-2-7-1-8-6-15-5-7z" fill="#503424"/>
<path transform="translate(289,1500)" d="m0 0 25 1h7l-4 5h-8l-1 4-4-1-1-4-9-2-5-2z" fill="#4F3323"/>
<path transform="translate(376,1578)" d="m0 0 2 1 2 11v15l-3-1-4-8 1-9z" fill="#482D1E"/>
<path transform="translate(1052,1577)" d="m0 0h2l4 12 11 19-1 5-3-3-14-27z" fill="#BF9471"/>
<path transform="translate(1564,1578)" d="m0 0 11 5v12l-4-1-7-10-1-5z" fill="#472C1D"/>
<path transform="translate(663,1523)" d="m0 0 4 1 5 11 2 12v8h-1l-2-9-8-17z" fill="#4D3222"/>
<path transform="translate(956,1500)" d="m0 0 4 1-2 9-5 20-2-4-3-7v-4l6-1 2-11z" fill="#523726"/>
<path transform="translate(1624,1499)" d="m0 0h9l3 2-1 3-1-1h-5l-5 5-5-1-7-5v-1z" fill="#533726"/>
<path transform="translate(1521,636)" d="m0 0 5 2 1-2 4 19v14h-1l-3-13-6-18z" fill="#0C0806"/>
<path transform="translate(585,1514)" d="m0 0 6 1v4l10-2h5l-4 2-6 2-3 14-2-4-6-15z" fill="#4C3121"/>
<path transform="translate(1639,1524)" d="m0 0h1l3 17v7l-5 11h-1v-13z" fill="#4D3222"/>
<path transform="translate(273,1576)" d="m0 0 5 2 1 4v11l-7-1-2 1 2-13z" fill="#4B3020"/>
<path transform="translate(1412,184)" d="m0 0h72v1l-48 2-24-2z" fill="#BF9471"/>
<path transform="translate(1837,1608)" d="m0 0h4v2l35 1 13 1v1h-50z" fill="#C09775"/>
<path transform="translate(1278,1576)" d="m0 0 9 9v10l-2 5h-1l-3-11-5-8z" fill="#593C2A"/>
<path transform="translate(1324,1528)" d="m0 0 3 4-6 8-10 19-1-3 4-12 5-9h2l2-6z" fill="#482F20"/>
<path transform="translate(914,241)" d="m0 0 4 1-5 3-33 8-5 1h-7l1-2 16-3z" fill="#BD9472"/>
<path transform="translate(193,1514)" d="m0 0h2l-1 5-1 2-1 11-3 6-4-1 1-5 2-11 2-1 2-5z" fill="#462C1D"/>
<path transform="translate(341,1584)" d="m0 0 4 1 6 8-3 9-2-3-5-7z" fill="#482E1E"/>
<path transform="translate(1888,1501)" d="m0 0h44l1 1v7l-3 8h-1l-1-14-40-1z" fill="#5D4230"/>
<path transform="translate(1486,167)" d="m0 0h10l31 3v1l-49-1 2-2z" fill="#C8A486"/>
<path transform="translate(1603,1543)" d="m0 0 3 1-2 6-10 18-7 1 6-7 8-16z" fill="#4E3322"/>
<path transform="translate(608,1371)" d="m0 0h11l17 2 13 1 5 2v2l-33-4-13-2z" fill="#553927"/>
<path transform="translate(1353,1533)" d="m0 0h1l3 22h-2l-1 6h-3v-9z" fill="#4B3020"/>
<path transform="translate(1218,1590)" d="m0 0 3 1 1 4-5 7-2 5-6 5-2 2-2-7 5-1 7-9z" fill="#503424"/>
<path transform="translate(1567,1604)" d="m0 0 3 1v3l2 1-5 8-4-1-1-2v-6z" fill="#4A2F20"/>
<path transform="translate(1026,895)" d="m0 0 2 4v12l-3 24h-1v-15l1-24z" fill="#5D402D"/>
<path transform="translate(1477,1500)" d="m0 0h9l-2 1-3 11-4-2 2-5-7-1-2-1v-2z" fill="#4D3222"/>
<path transform="translate(1564,657)" d="m0 0h1v14l-2 16-2 3v4h-2l1-13z" fill="#503524"/>
<path transform="translate(359,1533)" d="m0 0h1v19l-3 2-2-2-1-7z" fill="#472D1E"/>
<path transform="translate(1090,1508)" d="m0 0 2 3 2 6 2-1h23v1h-22v2l-5-1h-3-17v-1h16z" fill="#462C1D"/>
<path transform="translate(755,1513)" d="m0 0h8l10 3 2 3-8-2h-15l-7 2 2-4z" fill="#543827"/>
<path transform="translate(677,467)" d="m0 0h2v2l-11 6-16 8-5 2 5-5 22-12z" fill="#573A28"/>
<path transform="translate(751,781)" d="m0 0 5 1 5 6v2h2l5 7-1 2-8-7-8-8z" fill="#150E0A"/>
<path transform="translate(792,435)" d="m0 0v3l-10 17-4 1 2-5 9-14z" fill="#60422F"/>
<path transform="translate(1537,1555)" d="m0 0 1 3-12 25-1-4 9-20z" fill="#4D3222"/>
<path transform="translate(208,1521)" d="m0 0h2l-2 6-4 6-8 1 2-6 7-3z" fill="#BF9471"/>
<path transform="translate(1771,1586)" d="m0 0 3 3 1 4-6 8-2 3-8 4v-3l4-1v-2l3-1 5-7-1-5z" fill="#614330"/>
<path transform="translate(1821,1595)" d="m0 0 4 5 3 3v2l4 2 4 5-5-1-8-7-2-4z" fill="#BF9471"/>
<path transform="translate(450,1594)" d="m0 0 3 1v2h41v1h-45l-1 2 1-5z" fill="#4E3322"/>
<path transform="translate(1171,851)" d="m0 0 3 1-3 7-2 12-2-2v-15z" fill="#503524"/>
<path transform="translate(1061,1534)" d="m0 0 2 3 6 15 1 6-3-3-7-15z" fill="#BF9471"/>
<path transform="translate(1332,1509)" d="m0 0 2 2 1 4v7l-2 6h-2v-18z" fill="#BF9471"/>
<path transform="translate(164,298)" d="m0 0h2l4 6v5l-3 3h-2z" fill="#291C14"/>
<path transform="translate(1737,230)" d="m0 0 4 1 3-1v2h2v3l-4 2-6-1-2-4z" fill="#462C1D"/>
<path transform="translate(723,1605)" d="m0 0 5 2 7 4-3 2h-7l-2-5z" fill="#0C0806"/>
<path transform="translate(1133,1587)" d="m0 0h2l5 12 4 8-1 2-5-6-5-13z" fill="#BF9471"/>
<path transform="translate(1771,238)" d="m0 0 9 2v3h-4-1l-1 2h-5v-6z" fill="#462C1D"/>
<path transform="translate(1783,1608)" d="m0 0 3 3-1 5-7 1-1-4z" fill="#563A28"/>
<path transform="translate(1577,1593)" d="m0 0 5 1 5 2 10 1v1l-20 1-1-5z" fill="#482E1E"/>
<path transform="translate(522,1597)" d="m0 0h1l3 19-1 4v-2h-3z" fill="#573A29"/>
<path transform="translate(463,1530)" d="m0 0 1 3-1 11h-6l1-5z" fill="#4A3020"/>
<path transform="translate(895,1612)" d="m0 0 3 1-4 3-11 1-9-2v-1l17-1z" fill="#573B29"/>
<path transform="translate(510,1604)" d="m0 0h2l-1 9-4 9-2-3 1-4 2-3z" fill="#462C1D"/>
<path transform="translate(151,1592)" d="m0 0 2 1-2 9h-5l-1-3 4-6z" fill="#462C1D"/>
<path transform="translate(933,1374)" d="m0 0h14l2 3-2 2h-20v-1h16l-1-2-9-1z" fill="#8B715F"/>
<path transform="translate(893,247)" d="m0 0m-5 1h5v2l-18 4h-7l1-2 16-3z" fill="#AD8464"/>
<path transform="translate(1476,169)" d="m0 0 40 1v1l-43 1z" fill="#462C1D"/>
<path transform="translate(913,1596)" d="m0 0 2 1-1 8-1 2h-7z" fill="#533726"/>
<path transform="translate(1794,247)" d="m0 0 7 1 1 3-5 2-2 2h-3l1-6z" fill="#4B3020"/>
<path transform="translate(501,1500)" d="m0 0 7 1 1 5-1-2-16-1 4-2z" fill="#593C2A"/>
<path transform="translate(337,1605)" d="m0 0 2 1 3 9-3 7h-1l-1-7z" fill="#4B3020"/>
<path transform="translate(730,541)" d="m0 0 1 2-4 10-4 4h-2l2-5z" fill="#5A3D2B"/>
<path transform="translate(1134,1582)" d="m0 0h2l5 16 2 4-1 3-7-15z" fill="#4B3121"/>
<path transform="translate(1718,1501)" d="m0 0h6l-2 1v2l-17 1 1-3z" fill="#5B3E2B"/>
<path transform="translate(637,1374)" d="m0 0h12l5 2v2l-17-2z" fill="#5F4331"/>
<path transform="translate(295,1007)" d="m0 0 2 1-1 13v3h-2l-2-4v-6h2v-6z" fill="#462C1D"/>
<path transform="translate(1844,282)" d="m0 0 4 1 4 4 1 3-6-2-6-3z" fill="#5E402D"/>
<path transform="translate(1288,1558)" d="m0 0 1 2 4 2v7h-3l-3-9z" fill="#4A3020"/>
<path transform="translate(1267,1595)" d="m0 0h1l2 9 5 2v2l-5-1-4-3v-2l-2-1z" fill="#4F3423"/>
<path transform="translate(853,1500)" d="m0 0h14v1l-7 1-2 4-4-2-2-3z" fill="#492E1F"/>
<path transform="translate(919,238)" d="m0 0h2v5l-7 1 2-2-11 2v-2z" fill="#483021"/>
<path transform="translate(760,589)" d="m0 0 1 3-10 11-2 3-2-1 11-14z" fill="#533726"/>
<path transform="translate(1818,259)" d="m0 0 1 4h-2l-1 9-6-2 3-1 2-8z" fill="#634531"/>
<path transform="translate(1324,1528)" d="m0 0 3 4-6 8-2-2z" fill="#BF9471"/>
<path transform="translate(1212,1604)" d="m0 0 3 1v2l-6 5-2 2-2-7 5-1z" fill="#462C1D"/>
<path transform="translate(1418,1574)" d="m0 0h1l1 11-2-4h-2l-1 3h-5l1-3 7-1z" fill="#B99070"/>
<path transform="translate(1563,1503)" d="m0 0 1 2-8 16-2-1 5-10 2-5z" fill="#462C1D"/>
<path transform="translate(1411,693)" d="m0 0 2 4-2 4-4 6-2-1 5-10z" fill="#5B3E2C"/>
<path transform="translate(711,450)" d="m0 0 4 1-11 6-2-1 3-3z" fill="#5B3E2C"/>
<path transform="translate(1820,1588)" d="m0 0 2 4 4 7-1 2-3-4-2 2-1-6z" fill="#533726"/>
<path transform="translate(458,1573)" d="m0 0h2l-2 8 4 2h-6v-8z" fill="#4E3323"/>
<path transform="translate(1152,1566)" d="m0 0h2l4 10-1 3-3-5-2-5z" fill="#AD8464"/>
<path transform="translate(936,1500)" d="m0 0h7l-2 6-5-4z" fill="#4E3323"/>
<path transform="translate(909,1374)" d="m0 0h9l4 2-2 1-10-1z" fill="#030202"/>
<path transform="translate(1526,636)" d="m0 0 2 4 1 9-2-3-3-5v-3h2z" fill="#4F3423"/>
<path transform="translate(943,235)" d="m0 0h5l-4 2-11 2v-3z" fill="#876851"/>
<path transform="translate(1242,1627)" d="m0 0 3 1z" fill="#6E4E39"/>
</svg>
